<svg t="1766810985064" class="icon" viewBox="0 0 1024 1024" version="1.1" xmlns="http://www.w3.org/2000/svg" p-id="981" width="200" height="200">
  <defs>
    <linearGradient id="leafGradient" x1="0%" y1="0%" x2="100%" y2="100%">
      <stop offset="0%" stop-color="#84cc16" />
      <stop offset="100%" stop-color="#4d7c0f" />
    </linearGradient>
  </defs>
  <path d="M666.4 785.856c-117.344 84.96-256.736 52.448-336.544 21.344-33.792 73.728-45.184 124.288-45.408 125.44a34.368 34.368 0 0 1-40.608 26.624 34.496 34.496 0 0 1-26.464-40.864c2.4-11.712 59.264-272.64 318.08-495.68-100.736 46.976-238.464 153.376-308.032 316.16-59.904-120.768-60.8-344.256 133.088-449.792 81.856-44.224 164.64-52.992 264.8-87.552 72.256-25.344 114.784-76.032 132.16-101.376a8.576 8.576 0 0 1 15.552 1.856c31.968 87.072 160.448 490.304-106.624 683.84z" 
        fill="url(#leafGradient)" 
        p-id="982"/>
</svg>
